<svg width="128" height="128" viewBox="0 0 128 128" fill="none" xmlns="http://www.w3.org/2000/svg">
    <path fill-rule="evenodd" clip-rule="evenodd"
      d="M61.6727 9.48907C63.1128 8.65762 64.8872 8.65761 66.3273 9.48907L110.044 34.729C111.484 35.5605 112.371 37.0971 112.371 38.76V89.2399C112.371 90.9028 111.484 92.4394 110.044 93.2709L66.3273 118.511C64.8872 119.342 63.1129 119.342 61.6727 118.511L31.7521 101.236H1.52023C0.624463 101.236 0.0646082 100.266 0.512492 99.4907L15.6285 73.309V38.76C15.6285 37.0971 16.5157 35.5605 17.9558 34.729L61.6727 9.48907ZM64.5818 60.9768C64.2218 61.1847 63.7782 61.1847 63.4182 60.9768L43.887 49.7005C43.1112 49.2526 43.1112 48.1329 43.887 47.685L82.9494 25.1323C83.3094 24.9245 83.753 24.9245 84.113 25.1323L103.644 36.4087C104.42 36.8565 104.42 37.9763 103.644 38.4241L64.5818 60.9768ZM107.135 67.0232C107.495 66.8154 107.717 66.4312 107.717 66.0155V43.4628C107.717 42.5671 106.747 42.0072 105.971 42.4551L66.9091 65.0078C66.5491 65.2156 66.3273 65.5998 66.3273 66.0155V88.5682C66.3273 89.4639 67.297 90.0238 68.0727 89.5759L107.135 67.0232ZM59.9273 89.5759C60.703 90.0238 61.6727 89.4639 61.6727 88.5682V66.0155C61.6727 65.5998 61.4509 65.2156 61.0909 65.0078L41.5597 53.7314C40.784 53.2835 39.8143 53.8434 39.8143 54.7392V77.2918C39.8143 77.7076 40.0361 78.0917 40.3961 78.2996L59.9273 89.5759Z"
      fill="#8340BB" />
</svg>